# xmcd
#
# Track frame offsets: 
#        150
#        22604
#        41924
#        66271
#        88495
#        107240
#        129221
#        155174
#        174135
#        196855
#        217913
#        238285
#        264166
#
# Disc length: 3730 seconds
#
# Revision: 0
# Processed by: cddbd v1.5.2PL0 Copyright (c) Steve Scherf et al.
# Submitted via: ExactAudioCopy v0.99pb5
#
DISCID=ad0e900d
DTITLE=Mike Zito and The Wheel - Gone To Texas
DYEAR=2013
DGENRE=Blues
TTITLE0=Gone To Texas
TTITLE1=Rainbow Bridge (w Sonny Landreth)
TTITLE2=I Never Knew A Hurricane
TTITLE3=Don't Think Cause You're Pretty
TTITLE4=Death Row
TTITLE5=Don't Break A Leg
TTITLE6=Take It Easy
TTITLE7=The Road Never Ends (w Delbert McClinton)
TTITLE8=Subtraction Blues
TTITLE9=Hell On Me
TTITLE10=Voices In Dallas
TTITLE11=Wings Of Freedom
TTITLE12=Let Your Light Shine On Me
EXTD=
EXTT0=
EXTT1=
EXTT2=
EXTT3=
EXTT4=
EXTT5=
EXTT6=
EXTT7=
EXTT8=
EXTT9=
EXTT10=
EXTT11=
EXTT12=
PLAYORDER=
